<svg width="1000" height="1000" viewBox="0 0 1000 1000" fill="none" xmlns="http://www.w3.org/2000/svg">
<g clip-path="url(#clip0_212_7)">
<path d="M634.206 433.024H466.047V760.97H645.803C786.902 760.97 857.451 703.81 857.451 589.491C857.451 485.18 783.036 433.024 634.206 433.024ZM466.047 94.6855V386.257H634.206C705.721 386.257 757.715 374.518 790.188 351.037C823.046 327.173 839.476 290.029 839.476 239.606C839.476 189.181 821.307 152.423 784.969 129.328C749.018 106.233 694.124 94.6855 620.289 94.6855H466.047ZM412.701 807.737V47.9187H622.029C715.579 47.9187 784.583 63.8926 829.037 95.8404C873.88 127.403 896.302 175.518 896.302 240.182C896.302 284.832 882.579 321.784 855.132 351.037C828.072 379.906 788.834 398.382 737.421 406.465V409.929C798.499 418.782 843.341 437.836 871.947 467.089C900.554 496.342 914.856 537.143 914.856 589.491C914.856 659.545 891.47 713.433 844.695 751.155C798.306 788.876 732.202 807.737 646.383 807.737H412.701Z" fill="black"/>
<path fill-rule="evenodd" clip-rule="evenodd" d="M616.606 322.371V49.0605H564.999V322.371H616.606ZM616.606 479.972V808.879H562.68L110.971 134.511H106.912C110.778 211.109 112.711 271.732 112.711 316.382V808.879H61.6836V49.0605H115.03L566.739 722.85H569.638C566.545 656.26 564.999 596.984 564.999 545.02V479.972H616.606Z" fill="black"/>
<path d="M54.2305 928.793H45.8004L15.1308 881.387H14.8096C14.8632 882.346 14.9166 883.412 14.9702 884.584C15.0772 885.757 15.1575 887.036 15.211 888.422C15.2646 889.754 15.3181 891.14 15.3716 892.579C15.4252 894.018 15.4519 895.457 15.4519 896.896V928.793H8.78809V871.714H17.1379L47.7273 918.96H48.0484C47.9949 918.32 47.9414 917.441 47.8879 916.322C47.8343 915.149 47.7808 913.87 47.7273 912.484C47.6737 911.045 47.6203 909.58 47.5667 908.088C47.5131 906.595 47.4864 905.21 47.4864 903.931V871.714H54.2305V928.793ZM112.821 928.793H92.1072V924.636L98.8513 923.117V877.47L92.1072 875.871V871.714H112.821V875.871L106.077 877.47V923.117L112.821 924.636V928.793ZM166.603 871.714C171.367 871.714 175.274 872.327 178.324 873.552C181.429 874.725 183.731 876.51 185.229 878.909C186.728 881.307 187.477 884.318 187.477 887.942C187.477 890.98 186.915 893.512 185.791 895.537C184.667 897.561 183.222 899.188 181.456 900.413C179.743 901.586 177.923 902.518 175.996 903.211L191.732 928.793H183.302L169.413 905.21H158.012V928.793H150.786V871.714H166.603ZM166.201 877.949H158.012V899.134H166.603C169.707 899.134 172.25 898.734 174.23 897.935C176.211 897.082 177.656 895.856 178.565 894.258C179.529 892.659 180.01 890.66 180.01 888.262C180.01 885.757 179.502 883.759 178.485 882.266C177.522 880.773 176.024 879.682 173.989 878.988C171.955 878.295 169.36 877.949 166.201 877.949ZM263.595 928.793L256.69 911.125H233.969L227.145 928.793H219.839L242.239 871.474H248.742L271.062 928.793H263.595ZM248.1 887.462C247.939 887.036 247.672 886.263 247.297 885.144C246.923 884.025 246.548 882.879 246.173 881.707C245.852 880.481 245.584 879.548 245.37 878.909C245.103 879.974 244.808 881.067 244.487 882.186C244.219 883.252 243.925 884.238 243.603 885.144C243.336 886.05 243.095 886.823 242.881 887.462L236.378 904.73H254.522L248.1 887.462ZM351.242 928.793H342.812L312.142 881.387H311.821C311.875 882.346 311.929 883.412 311.982 884.584C312.089 885.757 312.17 887.036 312.222 888.422C312.276 889.754 312.33 891.14 312.383 892.579C312.437 894.018 312.463 895.457 312.463 896.896V928.793H305.799V871.714H314.149L344.739 918.96H345.06C345.007 918.32 344.953 917.441 344.899 916.322C344.846 915.149 344.793 913.87 344.739 912.484C344.686 911.045 344.632 909.58 344.578 908.088C344.525 906.595 344.498 905.21 344.498 903.931V871.714H351.242V928.793ZM385.586 943.982C384.302 943.982 383.178 943.876 382.214 943.662C381.251 943.502 380.394 943.262 379.645 942.943V936.867C380.502 937.08 381.411 937.267 382.375 937.426C383.338 937.586 384.356 937.666 385.426 937.666C386.764 937.666 388.021 937.4 389.199 936.867C390.43 936.334 391.421 935.402 392.17 934.069C392.919 932.736 393.294 930.871 393.294 928.473V871.714H400.52V927.913C400.52 931.591 399.904 934.602 398.673 936.947C397.442 939.345 395.703 941.104 393.455 942.223C391.207 943.396 388.583 943.982 385.586 943.982ZM478.513 928.793L471.608 911.125H448.887L442.063 928.793H434.756L457.157 871.474H463.66L485.98 928.793H478.513ZM463.017 887.462C462.857 887.036 462.59 886.263 462.215 885.144C461.841 884.025 461.466 882.879 461.091 881.707C460.769 880.481 460.502 879.548 460.288 878.909C460.02 879.974 459.726 881.067 459.405 882.186C459.137 883.252 458.843 884.238 458.521 885.144C458.254 886.05 458.013 886.823 457.799 887.462L451.296 904.73H469.44L463.017 887.462ZM566.16 928.793H557.73L527.06 881.387H526.739C526.793 882.346 526.847 883.412 526.9 884.584C527.007 885.757 527.088 887.036 527.14 888.422C527.194 889.754 527.248 891.14 527.301 892.579C527.355 894.018 527.381 895.457 527.381 896.896V928.793H520.717V871.714H529.067L559.657 918.96H559.978C559.925 918.32 559.871 917.441 559.817 916.322C559.764 915.149 559.711 913.87 559.657 912.484C559.604 911.045 559.55 909.58 559.496 908.088C559.443 906.595 559.416 905.21 559.416 903.931V871.714H566.16V928.793ZM672.744 871.714C677.508 871.714 681.496 872.167 684.707 873.073C687.971 873.978 690.407 875.471 692.013 877.55C693.672 879.628 694.502 882.4 694.502 885.864C694.502 888.102 694.073 890.1 693.218 891.859C692.415 893.564 691.183 895.003 689.524 896.176C687.919 897.295 685.938 898.068 683.583 898.494V898.894C685.992 899.268 688.159 899.96 690.086 900.973C692.066 901.986 693.619 903.425 694.743 905.29C695.867 907.155 696.429 909.58 696.429 912.564C696.429 916.028 695.626 918.986 694.02 921.438C692.415 923.836 690.113 925.675 687.116 926.954C684.171 928.179 680.639 928.793 676.518 928.793H656.366V871.714H672.744ZM674.19 896.016C679.113 896.016 682.485 895.243 684.306 893.698C686.125 892.099 687.035 889.754 687.035 886.663C687.035 883.519 685.911 881.281 683.663 879.948C681.468 878.562 677.935 877.869 673.066 877.869H663.592V896.016H674.19ZM663.592 902.012V922.717H675.153C680.237 922.717 683.77 921.732 685.751 919.759C687.73 917.787 688.721 915.202 688.721 912.005C688.721 909.98 688.266 908.221 687.357 906.729C686.5 905.236 685.028 904.09 682.941 903.291C680.906 902.438 678.124 902.012 674.591 902.012H663.592ZM771.448 928.793L764.543 911.125H741.822L734.998 928.793H727.692L750.092 871.474H756.595L778.915 928.793H771.448ZM755.953 887.462C755.792 887.036 755.525 886.263 755.15 885.144C754.775 884.025 754.401 882.879 754.026 881.707C753.705 880.481 753.437 879.548 753.223 878.909C752.956 879.974 752.661 881.067 752.34 882.186C752.072 883.252 751.778 884.238 751.457 885.144C751.189 886.05 750.948 886.823 750.734 887.462L744.231 904.73H762.376L755.953 887.462ZM857.248 908.647C857.248 912.591 856.446 916.162 854.84 919.359C853.234 922.503 850.772 925.009 847.453 926.874C844.188 928.686 840.013 929.592 834.929 929.592C827.809 929.592 822.378 927.673 818.63 923.836C814.937 919.945 813.091 914.829 813.091 908.487V871.714H820.316V908.727C820.316 913.364 821.547 916.961 824.01 919.519C826.525 922.078 830.298 923.357 835.33 923.357C838.809 923.357 841.619 922.743 843.76 921.518C845.954 920.239 847.56 918.506 848.577 916.322C849.595 914.083 850.103 911.525 850.103 908.647V871.714H857.248V908.647ZM915.091 871.714C919.855 871.714 923.762 872.327 926.813 873.552C929.917 874.725 932.219 876.51 933.717 878.909C935.216 881.307 935.965 884.318 935.965 887.942C935.965 890.98 935.403 893.512 934.279 895.537C933.155 897.561 931.71 899.188 929.944 900.413C928.231 901.586 926.411 902.518 924.484 903.211L940.22 928.793H931.79L917.901 905.21H906.5V928.793H899.274V871.714H915.091ZM914.689 877.949H906.5V899.134H915.091C918.195 899.134 920.738 898.734 922.718 897.935C924.699 897.082 926.144 895.856 927.053 894.258C928.017 892.659 928.499 890.66 928.499 888.262C928.499 885.757 927.99 883.759 926.973 882.266C926.01 880.773 924.512 879.682 922.477 878.988C920.443 878.295 917.848 877.949 914.689 877.949Z" fill="black"/>
</g>
<defs>
<clipPath id="clip0_212_7">
<rect width="999" height="905.635" fill="white" transform="translate(1 47.1404)"/>
</clipPath>
</defs>
</svg>
